<?xml version="1.0" standalone="no"?>
<!DOCTYPE svg PUBLIC "-//W3C//DTD SVG 20010904//EN"
 "http://www.w3.org/TR/2001/REC-SVG-20010904/DTD/svg10.dtd">
<svg version="1.0" xmlns="http://www.w3.org/2000/svg"
 width="181.000000pt" height="181.000000pt" viewBox="0 0 181.000000 181.000000"
 preserveAspectRatio="xMidYMid meet">
<metadata>
Created by potrace 1.14, written by Peter Selinger 2001-2017
</metadata>
<g transform="translate(0.000000,181.000000) scale(0.100000,-0.100000)"
fill="#000000" stroke="none">
<path d="M435 1429 c-141 -21 -282 -126 -348 -261 -46 -96 -60 -161 -59 -282
1 -324 193 -537 486 -539 100 -1 161 14 258 65 67 35 91 73 77 122 -11 39 -43
66 -79 66 -15 0 -57 -14 -93 -31 -134 -62 -274 -49 -360 34 -79 77 -114 189
-103 330 19 258 238 388 471 278 82 -38 95 -38 134 -5 24 20 31 34 31 63 0 50
-21 76 -90 111 -92 47 -215 65 -325 49z"/>
<path d="M1265 1422 c-87 -27 -136 -55 -203 -117 -109 -101 -165 -244 -163
-420 1 -197 70 -349 203 -450 86 -65 170 -90 298 -89 149 0 230 26 308 98 59
54 66 77 70 232 4 125 2 146 -16 187 -33 74 -53 81 -224 85 l-148 4 -30 -30
c-37 -38 -40 -80 -6 -119 23 -27 29 -28 133 -33 l108 -5 -1 -92 c0 -59 -5 -97
-13 -107 -33 -39 -207 -52 -298 -22 -131 43 -215 209 -199 388 13 142 71 235
181 289 58 28 74 32 149 31 63 0 102 -7 158 -26 90 -31 117 -32 147 -5 48 44
49 103 4 139 -82 64 -337 98 -458 62z"/>
</g>
</svg>
